<?xml version="1.0" encoding="UTF-8"?>
<!DOCTYPE svg PUBLIC "-//W3C//DTD SVG 1.1//EN" "http://www.w3.org/Graphics/SVG/1.1/DTD/svg11.dtd">
<svg version="1.2" width="4.5mm" height="4.5mm" viewBox="0 0 450 450" preserveAspectRatio="xMidYMid" fill-rule="evenodd" stroke-width="28.222" stroke-linejoin="round" xmlns="http://www.w3.org/2000/svg" xmlns:ooo="http://xml.openoffice.org/svg/export" xmlns:xlink="http://www.w3.org/1999/xlink" xmlns:presentation="http://sun.com/xmlns/staroffice/presentation" xmlns:smil="http://www.w3.org/2001/SMIL20/" xmlns:anim="urn:oasis:names:tc:opendocument:xmlns:animation:1.0" xmlns:svg="urn:oasis:names:tc:opendocument:xmlns:svg-compatible:1.0" xml:space="preserve">
 <defs class="ClipPathGroup">
  <clipPath id="presentation_clip_path" clipPathUnits="userSpaceOnUse">
   <rect x="0" y="0" width="450" height="450"/>
  </clipPath>
  <clipPath id="presentation_clip_path_shrink" clipPathUnits="userSpaceOnUse">
   <rect x="0" y="0" width="450" height="450"/>
  </clipPath>
 </defs>
 <defs class="TextShapeIndex">
  <g ooo:slide="id1" ooo:id-list="id3 id4 id5 id6 id7"/>
 </defs>
 <defs class="EmbeddedBulletChars">
  <g id="bullet-char-template-57356" transform="scale(0.00048828125,-0.00048828125)">
   <path d="M 580,1141 L 1163,571 580,0 -4,571 580,1141 Z"/>
  </g>
  <g id="bullet-char-template-57354" transform="scale(0.00048828125,-0.00048828125)">
   <path d="M 8,1128 L 1137,1128 1137,0 8,0 8,1128 Z"/>
  </g>
  <g id="bullet-char-template-10146" transform="scale(0.00048828125,-0.00048828125)">
   <path d="M 174,0 L 602,739 174,1481 1456,739 174,0 Z M 1358,739 L 309,1346 659,739 1358,739 Z"/>
  </g>
  <g id="bullet-char-template-10132" transform="scale(0.00048828125,-0.00048828125)">
   <path d="M 2015,739 L 1276,0 717,0 1260,543 174,543 174,936 1260,936 717,1481 1274,1481 2015,739 Z"/>
  </g>
  <g id="bullet-char-template-10007" transform="scale(0.00048828125,-0.00048828125)">
   <path d="M 0,-2 C -7,14 -16,27 -25,37 L 356,567 C 262,823 215,952 215,954 215,979 228,992 255,992 264,992 276,990 289,987 310,991 331,999 354,1012 L 381,999 492,748 772,1049 836,1024 860,1049 C 881,1039 901,1025 922,1006 886,937 835,863 770,784 769,783 710,716 594,584 L 774,223 C 774,196 753,168 711,139 L 727,119 C 717,90 699,76 672,76 641,76 570,178 457,381 L 164,-76 C 142,-110 111,-127 72,-127 30,-127 9,-110 8,-76 1,-67 -2,-52 -2,-32 -2,-23 -1,-13 0,-2 Z"/>
  </g>
  <g id="bullet-char-template-10004" transform="scale(0.00048828125,-0.00048828125)">
   <path d="M 285,-33 C 182,-33 111,30 74,156 52,228 41,333 41,471 41,549 55,616 82,672 116,743 169,778 240,778 293,778 328,747 346,684 L 369,508 C 377,444 397,411 428,410 L 1163,1116 C 1174,1127 1196,1133 1229,1133 1271,1133 1292,1118 1292,1087 L 1292,965 C 1292,929 1282,901 1262,881 L 442,47 C 390,-6 338,-33 285,-33 Z"/>
  </g>
  <g id="bullet-char-template-9679" transform="scale(0.00048828125,-0.00048828125)">
   <path d="M 813,0 C 632,0 489,54 383,161 276,268 223,411 223,592 223,773 276,916 383,1023 489,1130 632,1184 813,1184 992,1184 1136,1130 1245,1023 1353,916 1407,772 1407,592 1407,412 1353,268 1245,161 1136,54 992,0 813,0 Z"/>
  </g>
  <g id="bullet-char-template-8226" transform="scale(0.00048828125,-0.00048828125)">
   <path d="M 346,457 C 273,457 209,483 155,535 101,586 74,649 74,723 74,796 101,859 155,911 209,963 273,989 346,989 419,989 480,963 531,910 582,859 608,796 608,723 608,648 583,586 532,535 482,483 420,457 346,457 Z"/>
  </g>
  <g id="bullet-char-template-8211" transform="scale(0.00048828125,-0.00048828125)">
   <path d="M -4,459 L 1135,459 1135,606 -4,606 -4,459 Z"/>
  </g>
  <g id="bullet-char-template-61548" transform="scale(0.00048828125,-0.00048828125)">
   <path d="M 173,740 C 173,903 231,1043 346,1159 462,1274 601,1332 765,1332 928,1332 1067,1274 1183,1159 1299,1043 1357,903 1357,740 1357,577 1299,437 1183,322 1067,206 928,148 765,148 601,148 462,206 346,322 231,437 173,577 173,740 Z"/>
  </g>
 </defs>
 <g>
  <g id="id2" class="Master_Slide">
   <g id="bg-id2" class="Background"/>
   <g id="bo-id2" class="BackgroundObjects"/>
  </g>
 </g>
 <g class="SlideGroup">
  <g>
   <g id="container-id1">
    <g id="id1" class="Slide" clip-path="url(#presentation_clip_path)">
     <g class="Page">
      <g class="Group">
       <g class="com.sun.star.drawing.PolyPolygonShape">
        <g id="id3">
         <rect class="BoundingBox" stroke="none" fill="none" x="17" y="65" width="239" height="240"/>
         <path fill="rgb(255,255,255)" fill-opacity="0.878" stroke="none" d="M 18,66 L 254,66 254,303 18,303 18,66 Z"/>
        </g>
       </g>
       <g class="com.sun.star.drawing.PolyPolygonShape">
        <g id="id4">
         <rect class="BoundingBox" stroke="none" fill="none" x="51" y="311" width="107" height="107"/>
         <path fill="rgb(255,255,255)" fill-opacity="0.878" stroke="none" d="M 157,364 L 157,368 156,371 156,374 155,378 154,381 153,384 151,387 150,390 148,393 146,396 144,398 141,401 139,403 136,405 134,407 131,409 128,411 125,412 121,413 118,414 115,415 112,416 108,416 105,416 101,416 98,416 94,415 91,414 87,413 84,412 81,411 78,409 75,407 72,405 70,403 67,401 65,398 63,396 61,393 59,390 57,387 56,384 54,381 54,378 53,374 52,371 52,368 52,364 52,361 52,357 53,353 54,350 54,347 56,343 57,340 59,337 61,334 63,332 65,329 67,326 70,324 72,322 75,320 78,318 81,317 84,315 87,314 91,313 94,312 97,312 101,311 105,311 108,311 111,312 115,312 118,313 121,314 125,315 128,317 131,318 134,320 136,322 139,324 142,326 144,329 146,332 148,334 150,337 151,340 153,343 154,347 155,350 156,353 156,357 157,361 157,364 Z"/>
        </g>
       </g>
       <g class="com.sun.star.drawing.PolyPolygonShape">
        <g id="id5">
         <rect class="BoundingBox" stroke="none" fill="none" x="278" y="313" width="108" height="107"/>
         <path fill="rgb(255,255,255)" fill-opacity="0.878" stroke="none" d="M 384,366 L 384,370 384,373 383,376 383,380 382,383 380,386 379,389 377,392 375,395 373,398 371,400 369,403 366,405 364,407 361,409 358,411 355,413 352,414 349,415 345,416 342,417 338,418 335,418 331,418 328,418 325,418 321,417 318,416 315,415 311,414 308,413 305,411 302,409 299,407 297,405 294,403 292,400 289,398 287,395 285,392 284,389 282,386 281,383 280,380 279,376 279,373 279,370 278,366 279,363 279,359 280,355 280,352 281,349 283,345 284,342 285,339 287,336 289,334 292,331 294,328 297,326 300,324 302,322 305,320 308,319 311,317 315,316 318,315 321,314 325,314 328,313 331,313 335,313 338,314 342,314 345,315 349,316 352,317 355,319 358,320 361,322 364,324 366,326 369,328 371,331 373,334 375,336 377,339 379,342 380,345 382,349 383,352 383,355 384,359 384,363 384,366 Z"/>
        </g>
       </g>
       <g class="com.sun.star.drawing.ClosedBezierShape">
        <g id="id6">
         <rect class="BoundingBox" stroke="none" fill="none" x="279" y="17" width="155" height="289"/>
         <path fill="rgb(255,255,255)" fill-opacity="0.878" stroke="none" d="M 279,18 C 305,18 330,18 356,18 381,55 407,92 432,129 432,187 432,246 432,304 381,304 330,304 279,304 279,209 279,113 279,18 Z M 301,58 C 301,81 301,105 301,129 335,129 368,129 401,129 386,105 371,81 356,58 338,58 320,58 301,58 Z"/>
        </g>
       </g>
       <g class="com.sun.star.drawing.CustomShape">
        <g id="id7">
         <rect class="BoundingBox" stroke="none" fill="none" x="156" y="224" width="131" height="100"/>
         <path fill="rgb(255,255,255)" fill-opacity="0.878" stroke="none" d="M 221,323 L 156,323 156,224 286,224 286,323 221,323 Z"/>
        </g>
       </g>
      </g>
     </g>
    </g>
   </g>
  </g>
 </g>
</svg>